#!OML:ASF H:\BreakDance\Project 1\Capture day 1\Session 1\Male.ASF
:FULLY-SPECIFIED
:DEGREES
1379
root -4.66279 13.8596 0.338556 -21.4701 -77.627 81.5802
lowerback 32.5012 0.00016743 4.4476
upperback 10.701 0.218179 -3.45373
thorax -4.94906 -0.00863707 -6.0504
lowerneck -9.3053 -3.27376 -3.74181
upperneck 5.27334 -4.62225 9.32201
head 3.40184 -1.95846 3.1798
rclavicle 7.31528e-014 -7.7526e-015
rhumerus 58.6918 15.4966 -9.84664
rradius 24.5888
rwrist -8.93932
rhand 14.2152 -38.6405
rfingers 7.12502
rthumb 39.1124 655.872
lclavicle 7.31528e-014 -7.7526e-015
lhumerus 83.5286 -8.20611 -9.05701
lradius 29.6688
lwrist 4.90489
lhand -4.17831 -745.182
lfingers 7.12502
lthumb 21.5827 3.63517
rfemur -112.265 -18.8839 20.2748
rtibia 84.1425
rfoot -23.8733 -6.52969
rtoes -13.8354
lfemur -105.135 15.1685 -46.3156
ltibia 72.1987
lfoot -27.5668 -8.65809
ltoes -32.6892
1380
root -4.52311 13.6506 0.339754 -21.4537 -77.6278 78.9635
lowerback 32.0693 -0.0380002 4.8776
upperback 10.7569 0.298882 -3.19441
thorax -4.70169 0.0312674 -6.0318
lowerneck -9.82364 -3.254 -4.24761
upperneck 6.21666 -4.54656 8.86773
head 3.76495 -1.91777 3.12019
rclavicle -1.90833e-014 5.68524e-014
rhumerus 59.9943 17.8863 -5.93061
rradius 25.2697
rwrist -11.5398
rhand 15.1442 -39.0658
rfingers 7.12502
rthumb 39.9874 655.704
lclavicle -1.90833e-014 5.68524e-014
lhumerus 84.0186 -9.07936 -9.40294
lradius 29.6932
lwrist 6.39561
lhand -2.78209 -745.001
lfingers 7.12502
lthumb 22.9231 3.65599
rfemur -112.125 -19.1894 20.3091
rtibia 87.2975
rfoot -24.1382 -6.57601
rtoes -14.2259
lfemur -104.136 15.1172 -43.8722
ltibia 75.1108
lfoot -30.3186 -5.08079
ltoes -33.5972
1381
root -4.40152 13.4647 0.348099 -21.0778 -77.561 76.1193
lowerback 31.289 -0.139931 5.37483
upperback 11.1798 0.263802 -2.71002
thorax -4.32046 0.00991016 -6.22084
lowerneck -10.1044 -3.21688 -4.58353
upperneck 6.4895 -4.41449 8.34905
head 3.87825 -1.87438 3.0207
rclavicle -3.81667e-014 3.87133e-014
rhumerus 61.2556 19.3068 -3.52303
rradius 25.5959
rwrist -12.2732
rhand 16.3401 -39.153
rfingers 7.12502
rthumb 41.1116 655.966
lclavicle -3.81667e-014 3.87133e-014
lhumerus 84.4631 -9.73142 -9.19353
lradius 29.4344
lwrist 7.5993
lhand -1.4453 -744.423
lfingers 7.12502
lthumb 24.2053 4.06974
rfemur -111.692 -19.6303 20.5746
rtibia 89.9429
rfoot -24.702 -6.66596
rtoes -13.5008
lfemur -103.17 14.8484 -41.2573
ltibia 77.9218
lfoot -31.9557 -2.81287
ltoes -33.6255
1382
root -4.29518 13.2959 0.357176 -20.7549 -77.4015 73.5673
lowerback 30.6984 -0.284184 5.76934
upperback 11.3479 0.170063 -2.51449
thorax -3.86709 -0.0174432 -6.18379
lowerneck -10.1486 -3.15917 -4.66512
upperneck 6.21028 -4.26304 7.84405
head 3.77976 -1.83105 2.8886
rclavicle -3.18055e-015 -6.5102e-015
rhumerus 62.1004 19.8795 -3.11337
rradius 25.536
rwrist -11.0486
rhand 17.443 -38.8368
rfingers 7.12502
rthumb 42.1461 656.622
lclavicle -3.18055e-015 -6.5102e-015
lhumerus 84.8798 -10.2539 -8.40749
lradius 28.9372
lwrist 8.21507
lhand -0.183679 -743.481
lfingers 7.12502
lthumb 25.4144 4.84463
rfemur -111.145 -20.1688 20.8493
rtibia 92.141
rfoot -25.4858 -6.69536
rtoes -11.9085
lfemur -102.353 14.4233 -38.836
ltibia 80.447
lfoot -32.9602 -1.49829
ltoes -33.5293
1383
root -4.20174 13.1472 0.362058 -21.0271 -77.2022 71.8275
lowerback 30.0711 -0.375533 5.91596
upperback 11.5297 0.0586168 -2.42206
thorax -3.38951 -0.0537457 -6.11505
lowerneck -9.96902 -3.07945 -4.46566
upperneck 5.5151 -4.11505 7.40717
head 3.51595 -1.7897 2.73509
rclavicle -4.13472e-014 -4.9895e-014
rhumerus 62.446 19.888 -4.43702
rradius 25.1996
rwrist -8.54406
rhand 17.9589 -38.2168
rfingers 7.12502
rthumb 42.6291 657.407
lclavicle -4.13472e-014 -4.9895e-014
lhumerus 85.2594 -10.7435 -6.97946
lradius 28.2684
lwrist 7.94522
lhand 1.04221 -742.332
lfingers 7.12502
lthumb 26.5882 5.82179
rfemur -110.475 -20.6971 20.8844
rtibia 93.9215
rfoot -26.3361 -6.5149
rtoes -9.88278
lfemur -101.599 14.0105 -36.8107
ltibia 82.5763
lfoot -33.5108 -0.850588
ltoes -33.3909
1384
root -4.11885 13.025 0.36146 -22.2306 -77.0193 71.1743
lowerback 29.5124 -0.366952 5.74857
upperback 11.7104 -0.0178606 -2.4243
thorax -2.94638 -0.0807009 -5.98471
lowerneck -9.57701 -2.98764 -4.11034
upperneck 4.29932 -3.95651 6.86845
head 3.38891 -1.76804 2.80236
rclavicle 5.08889e-014 8.74653e-015
rhumerus 62.4842 19.6695 -6.57888
rradius 24.7801
rwrist -5.94845
rhand 17.4823 -37.549
rfingers 7.12502
rthumb 42.1828 657.922
lclavicle 5.08889e-014 8.74653e-015
lhumerus 85.5557 -11.2715 -4.88241
lradius 27.5166
lwrist 6.67764
lhand 2.23304 -741.17
lfingers 7.12502
lthumb 27.7274 6.80564
rfemur -109.638 -21.1382 20.6392
rtibia 95.3092
rfoot -27.0954 -6.25844
rtoes -8.24711
lfemur -100.76 13.7366 -35.2847
ltibia 84.2636
lfoot -33.8554 -0.613952
ltoes -33.1485
1385
root -4.04279 12.9308 0.357135 -24.2985 -76.89 71.5553
lowerback 29.0203 -0.258937 5.32823
upperback 11.8716 -0.0335966 -2.49186
thorax -2.5527 -0.0876118 -5.80165
lowerneck -9.04518 -2.88145 -3.58128
upperneck 3.22787 -3.82554 6.58665
head 2.88271 -1.72866 2.60597
rclavicle 3.65764e-014 8.74653e-015
rhumerus 62.5065 19.5308 -8.46709
rradius 24.4635
rwrist -4.38134
rhand 16.0622 -37.1175
rfingers 7.12502
rthumb 40.8505 657.919
lclavicle 3.65764e-014 8.74653e-015
lhumerus 85.713 -11.866 -2.2391
lradius 26.7763
lwrist 4.5851
lhand 3.28464 -740.137
lfingers 7.12502
lthumb 28.7325 7.67241
rfemur -108.729 -21.4368 20.1623
rtibia 96.3506
rfoot -27.6045 -6.059
rtoes -7.59768
lfemur -99.8273 13.6253 -34.295
ltibia 85.5284
lfoot -34.1851 -0.315781
ltoes -33.2515
1386
root -3.97107 12.8659 0.352585 -26.9218 -76.8775 72.6693
lowerback 28.5704 -0.075605 4.7979
upperback 12.0145 0.0230511 -2.57378
thorax -2.19109 -0.0664167 -5.59343
lowerneck -8.4849 -2.77465 -3.10359
upperneck 2.10074 -3.68541 6.32297
head 2.36594 -1.68802 2.43031
rclavicle -7.95139e-015 3.93594e-014
rhumerus 62.7513 19.6349 -9.39543
rradius 24.3544
rwrist -4.30883
rhand 14.1426 -37.0861
rfingers 7.12502
rthumb 39.044 657.407
lclavicle -7.95139e-015 3.93594e-014
lhumerus 85.6828 -12.4997 0.714854
lradius 26.1116
lwrist 2.04497
lhand 4.04509 -739.336
lfingers 7.12502
lthumb 29.4587 8.34798
rfemur -107.807 -21.5328 19.5902
rtibia 97.0703
rfoot -27.8098 -5.96363
rtoes -7.94384
lfemur -98.8526 13.7021 -33.6861
ltibia 86.441
lfoot -34.5122 0.0823612
ltoes -33.4373
1387
root -3.90276 12.8281 0.351381 -29.7035 -77.0142 74.1182
lowerback 28.1467 0.122818 4.34006
upperback 12.1489 0.12346 -2.63368
thorax -1.84362 -0.0253492 -5.41562
lowerneck -8.03915 -2.66348 -2.7825
upperneck 1.00314 -3.52206 6.03049
head 1.89378 -1.63698 2.27851
rclavicle 4.29375e-014 -3.73715e-014
rhumerus 63.3243 19.9576 -9.25068
rradius 24.4589
rwrist -5.41986
rhand 12.2615 -37.4172
rfingers 7.12502
rthumb 37.268 656.588
lclavicle 4.29375e-014 -3.73715e-014
lhumerus 85.4505 -13.0901 3.63197
lradius 25.5625
lwrist -0.476041
lhand 4.39739 -738.824
lfingers 7.12502
lthumb 29.795 8.80049
rfemur -106.914 -21.4239 19.0781
rtibia 97.5042
rfoot -27.7527 -5.95739
rtoes -8.94849
lfemur -97.9075 13.9422 -33.2687
ltibia 87.0899
lfoot -34.7923 0.585264
ltoes -33.6753
1388
root -3.83826 12.8117 0.356442 -32.2605 -77.3155 75.5248
lowerback 27.7065 0.279521 4.10763
upperback 12.2906 0.23076 -2.65242
thorax -1.47366 0.0247654 -5.32386
lowerneck -7.80568 -2.5395 -2.64453
upperneck -0.0364697 -3.32743 5.68855
head 1.4896 -1.56815 2.14683
rclavicle 7.95139e-015 1.35174e-014
rhumerus 64.1883 20.3422 -8.35076
rradius 24.7163
rwrist -6.94162
rhand 10.8706 -37.8764
rfingers 7.12502
rthumb 35.9516 655.795
lclavicle 7.95139e-015 1.35174e-014
lhumerus 85.0559 -13.5536 6.18673
lradius 25.137
lwrist -2.63308
lhand 4.3128 -738.615
lfingers 7.12502
lthumb 29.7143 9.02385
rfemur -106.082 -21.1442 18.7448
rtibia 97.6852
rfoot -27.5353 -5.95758
rtoes -9.99482
lfemur -97.0536 14.2703 -32.8494
ltibia 87.5434
lfoot -34.9973 1.13899
ltoes -33.9482
